<?xml version="1.0" standalone="no"?>
<!DOCTYPE svg PUBLIC "-//W3C//DTD SVG 20010904//EN"
 "http://www.w3.org/TR/2001/REC-SVG-20010904/DTD/svg10.dtd">
<svg version="1.0" xmlns="http://www.w3.org/2000/svg"
 width="300.000000pt" height="366.000000pt" viewBox="0 0 300.000000 366.000000"
 preserveAspectRatio="xMidYMid meet">
<metadata>
Created by potrace 1.10, written by Peter Selinger 2001-2011
</metadata>
<g transform="translate(0.000000,366.000000) scale(0.100000,-0.100000)"
fill="#000000" stroke="none">
<path d="M1498 2915 c-2 -2 -30 -5 -63 -7 -33 -3 -77 -12 -99 -21 -21 -9 -42
-17 -46 -17 -16 0 -98 -87 -123 -131 -29 -50 -76 -234 -71 -276 4 -24 3 -25
-5 -8 -12 26 -12 26 -14 -157 -2 -110 -6 -161 -14 -170 -15 -14 -17 -48 -3
-48 18 0 10 -50 -15 -100 -14 -28 -29 -50 -33 -50 -4 0 -16 -16 -26 -35 -10
-19 -27 -37 -37 -40 -11 -4 -22 -17 -25 -31 -4 -13 -14 -30 -23 -37 -20 -14
-34 -57 -19 -57 6 0 8 -6 5 -12 -2 -7 -1 -22 3 -32 3 -11 1 -44 -6 -75 -16
-69 -10 -77 15 -20 23 51 38 112 23 90 -7 -9 -10 2 -10 35 -2 64 5 83 28 81
23 -1 25 -8 8 -25 -9 -9 -9 -15 0 -24 9 -9 16 -1 31 33 12 24 21 50 21 57 0 6
3 12 8 12 15 0 88 139 96 185 11 55 24 50 42 -15 9 -33 21 -60 25 -60 5 0 9
-6 9 -13 0 -8 11 -24 24 -36 14 -13 27 -35 29 -50 l3 -26 8 27 c7 22 3 34 -18
59 -57 68 -70 106 -74 226 -2 63 0 125 6 142 9 24 8 29 -3 25 -8 -3 -18 -18
-23 -32 l-9 -27 -5 27 c-3 15 -1 25 3 22 5 -3 9 2 9 11 0 9 -3 14 -7 12 -5 -3
-9 18 -10 45 -2 37 2 57 17 78 11 16 19 36 18 47 -4 28 23 183 33 189 5 3 9
13 9 22 0 9 13 26 30 37 16 11 29 26 27 34 -1 8 4 16 12 19 8 3 11 0 7 -7 -4
-6 -2 -11 4 -11 6 0 10 10 8 23 -2 16 2 22 14 21 10 -1 16 2 13 6 -8 13 53 33
80 26 18 -5 25 -2 25 7 0 8 11 14 28 15 15 0 32 1 37 2 25 5 45 -1 45 -14 0
-13 4 -13 26 -1 23 12 30 11 62 -7 61 -34 116 -72 133 -90 9 -10 20 -14 24
-10 5 4 5 2 1 -5 -3 -6 2 -26 13 -44 11 -17 17 -37 15 -44 -3 -7 0 -16 5 -20
6 -3 9 -10 6 -14 -2 -5 2 -39 10 -77 17 -81 19 -118 5 -109 -5 3 -10 14 -10
24 0 9 -9 27 -21 40 -12 12 -18 25 -15 28 3 3 -4 17 -14 31 -11 13 -20 30 -20
37 0 37 -129 103 -208 106 -59 3 -69 -3 -78 -49 -6 -27 -4 -31 10 -26 9 3 16
14 16 23 0 27 6 28 67 19 32 -6 66 -10 75 -11 9 -1 15 -3 13 -6 -4 -4 55 -92
78 -116 19 -20 -17 41 -45 78 -32 40 -25 49 15 17 61 -48 98 -193 89 -348 -2
-51 -2 -92 1 -92 3 0 13 7 21 16 13 13 16 13 16 1 0 -8 -8 -21 -19 -28 -18
-14 -38 -79 -23 -79 13 0 12 -41 -1 -46 -8 -3 -11 -19 -9 -45 3 -32 1 -40 -9
-37 -9 3 -13 17 -11 39 5 44 -5 33 -33 -36 -19 -47 -21 -62 -13 -102 13 -60
20 -68 66 -68 48 0 49 -22 2 -48 -19 -10 -39 -26 -43 -33 -5 -8 -13 -12 -18
-8 -6 3 -18 -1 -28 -10 -10 -9 -25 -14 -35 -10 -9 3 -16 1 -16 -5 0 -6 5 -11
11 -11 6 0 9 -12 7 -27 -2 -21 -8 -27 -22 -25 -14 3 -17 -1 -12 -13 3 -9 6
-18 6 -21 0 -2 7 -1 16 3 13 5 15 2 9 -15 -4 -14 -2 -22 5 -22 6 0 9 -4 6 -9
-3 -5 1 -11 9 -15 12 -4 13 -10 3 -30 -8 -20 -8 -29 1 -40 7 -8 10 -20 7 -25
-4 -5 -2 -12 4 -16 5 -3 10 -15 10 -25 0 -10 5 -20 12 -22 7 -3 12 -25 12 -56
0 -29 3 -52 8 -52 4 0 8 9 8 20 0 11 7 20 16 20 11 0 14 6 9 20 -4 13 -1 22 9
26 9 3 16 12 16 20 0 8 6 14 14 14 8 0 18 9 21 21 5 15 10 17 19 9 10 -8 17 1
31 36 9 25 14 48 11 51 -4 4 -12 -8 -18 -25 -8 -19 -18 -30 -25 -28 -7 3 -17
-4 -23 -14 -6 -11 -17 -20 -25 -20 -8 0 -15 -7 -15 -15 0 -8 -4 -15 -8 -15 -5
0 -14 -10 -21 -22 -11 -22 -11 -22 -6 3 3 18 0 29 -10 33 -8 3 -12 12 -9 19 3
8 -2 17 -11 21 -9 3 -13 10 -10 16 11 18 12 100 1 100 -6 0 -12 12 -13 26 0
15 -6 30 -12 33 -7 5 -1 17 17 34 29 28 60 23 49 -7 -4 -9 -1 -16 5 -16 6 0 8
-3 5 -7 -4 -3 -2 -11 3 -18 6 -7 6 -23 0 -43 -5 -21 -5 -32 2 -32 6 0 7 -15 3
-40 -4 -25 -3 -40 3 -40 13 0 72 58 72 71 0 5 7 9 15 9 7 0 18 8 24 17 5 10
13 15 17 11 7 -7 64 21 64 32 0 3 -11 6 -25 6 -14 1 -25 -2 -25 -7 0 -5 -7 -9
-15 -9 -8 0 -29 -16 -48 -35 -39 -40 -52 -44 -44 -15 3 11 2 20 -3 20 -10 0
-20 37 -12 45 12 12 7 50 -10 69 -19 21 -19 46 1 70 11 14 15 14 28 1 8 -8 12
-19 8 -24 -3 -5 4 -16 15 -24 16 -11 18 -19 11 -44 -11 -37 2 -64 20 -46 15
15 20 53 7 53 -5 0 -7 8 -3 19 3 10 -1 23 -10 31 -11 9 -12 17 -4 31 7 15 6
19 -6 19 -20 0 -19 36 1 44 27 10 36 7 30 -10 -4 -10 1 -25 10 -35 9 -10 13
-23 9 -28 -3 -6 1 -11 10 -11 12 0 15 -6 10 -20 -6 -18 -3 -20 29 -16 38 5 44
-1 24 -23 -11 -11 -10 -13 3 -8 10 3 26 -3 38 -14 28 -26 31 -27 43 -6 7 13 7
22 -1 30 -8 8 -11 8 -11 -1 0 -7 -4 -12 -10 -12 -5 0 -10 7 -10 15 0 8 -6 12
-14 9 -10 -4 -16 2 -18 18 -2 13 -8 22 -14 21 -15 -3 -97 67 -89 75 3 4 9 2
13 -4 4 -6 18 -14 32 -18 23 -6 23 -5 6 6 -62 43 -68 51 -62 79 3 16 9 43 12
60 4 17 2 40 -4 52 -15 31 -25 94 -25 152 0 158 7 242 20 262 23 34 2 241 -31
316 -26 59 -109 157 -133 157 -8 0 -25 11 -39 25 -14 14 -38 28 -52 30 -46 8
-101 13 -104 10z m313 -902 c1 -10 1 -24 0 -32 -2 -7 2 -10 7 -7 5 3 13 -21
16 -55 6 -52 5 -63 -11 -75 -26 -20 -39 -17 -20 4 10 10 16 27 16 38 -1 14 -2
15 -6 3 -5 -20 -57 -51 -75 -44 -8 3 -13 23 -14 50 0 25 1 43 4 40 3 -3 10 5
16 17 16 32 31 32 42 1 9 -24 10 -21 8 25 -2 28 2 52 7 52 5 0 10 -8 10 -17z"/>
<path d="M1245 2481 c-21 -9 -73 -61 -61 -61 4 0 17 9 29 21 19 18 31 20 85
16 54 -4 77 3 55 16 -18 11 -90 16 -108 8z"/>
<path d="M1540 2451 c-22 -7 -23 -9 -7 -16 10 -4 36 -5 57 -1 45 7 107 -13
116 -39 3 -8 10 -15 16 -15 13 0 -23 58 -40 65 -27 10 -117 14 -142 6z"/>
<path d="M1376 2399 c8 -36 -11 -45 -42 -20 -39 30 -91 28 -106 -4 -13 -30 0
-50 42 -60 33 -8 73 19 50 35 -12 8 -11 10 7 10 26 0 39 -15 21 -26 -16 -10
24 -24 51 -17 29 7 27 41 -4 78 l-25 30 6 -26z m-91 -44 c0 -14 -3 -25 -6 -25
-13 0 -31 29 -24 40 12 19 30 10 30 -15z"/>
<path d="M1535 2357 c-8 -4 -15 -18 -15 -31 0 -31 46 -51 92 -40 18 4 41 8 50
9 31 2 30 12 -4 38 -35 26 -97 39 -123 24z"/>
<path d="M1383 2291 c-6 -10 -15 -35 -19 -56 -4 -23 -9 -32 -14 -25 -6 9 -10
6 -15 -9 -3 -11 -10 -21 -15 -21 -19 0 14 -74 35 -76 6 -1 21 -5 35 -8 l25 -7
-25 20 c-23 19 -24 21 -12 63 17 54 30 138 23 138 -4 0 -11 -8 -18 -19z"/>
<path d="M1296 2054 c-4 -14 -3 -31 3 -37 5 -7 9 -16 8 -21 -1 -5 13 -10 31
-11 29 -2 31 -1 15 10 -29 22 -7 29 49 15 29 -6 66 -12 83 -12 16 0 36 -8 43
-17 11 -14 12 -13 10 8 -3 20 -12 26 -57 38 -38 9 -57 10 -67 3 -9 -8 -15 -6
-23 7 -9 15 -12 16 -20 3 -9 -12 -11 -12 -17 4 -4 11 -14 16 -25 13 -11 -3
-17 -1 -14 3 3 5 1 11 -4 14 -5 3 -12 -6 -15 -20z"/>
<path d="M1280 1871 c0 -22 19 -59 34 -64 11 -4 14 0 10 16 -2 12 -8 23 -14
25 -5 2 -10 10 -10 18 0 8 -4 14 -10 14 -5 0 -10 -4 -10 -9z"/>
<path d="M1440 1815 c-26 -8 -37 -14 -25 -15 30 -3 47 0 69 16 24 17 16 16
-44 -1z"/>
<path d="M1072 1785 c-14 -29 2 -44 17 -16 6 11 11 24 11 30 0 20 -17 11 -28
-14z"/>
<path d="M1177 1758 c-13 -18 -29 -43 -36 -55 -9 -19 -8 -20 10 -16 11 3 18 8
15 11 -9 8 14 43 25 37 5 -4 9 -3 8 2 -1 4 1 16 6 26 14 32 -2 29 -28 -5z"/>
<path d="M1237 1777 c-4 -10 6 -33 28 -61 18 -24 41 -58 50 -75 16 -32 35 -41
35 -18 0 7 -11 29 -24 48 -14 20 -28 48 -31 62 -5 17 -12 24 -21 20 -8 -3 -17
4 -22 18 -7 18 -10 19 -15 6z"/>
<path d="M825 1728 c-29 -35 -82 -141 -108 -220 -28 -81 -37 -168 -31 -303 5
-102 3 -143 -10 -190 -9 -32 -16 -78 -16 -101 0 -77 77 -166 245 -279 30 -20
146 -75 159 -75 4 0 -5 15 -19 34 -14 18 -23 40 -20 49 5 10 1 15 -12 14 -14
-2 -17 5 -16 33 2 19 0 29 -3 23 -10 -23 -26 -14 -20 11 4 16 1 26 -9 30 -8 3
-12 12 -9 21 4 8 1 15 -6 15 -8 0 -11 9 -8 25 4 19 1 25 -11 23 -10 -2 -15 4
-15 15 1 9 -5 17 -13 17 -11 0 -14 7 -10 20 3 12 1 35 -3 52 -7 22 -5 36 5 52
17 24 19 36 6 36 -14 0 -29 -56 -34 -122 -3 -45 0 -58 10 -58 10 0 12 -7 8
-20 -4 -14 -2 -20 8 -20 10 0 13 -7 10 -20 -4 -14 0 -20 11 -20 12 0 15 -6 10
-25 -4 -15 -2 -25 5 -25 6 0 11 -9 11 -20 0 -11 7 -20 15 -20 8 0 15 -9 15
-21 0 -11 -4 -18 -9 -15 -5 4 -11 1 -13 -6 -3 -8 -12 -4 -26 10 -12 12 -26 22
-32 22 -5 0 -10 7 -10 15 0 9 -7 18 -15 21 -8 4 -15 15 -15 25 0 10 -5 19 -10
19 -7 0 -9 18 -6 48 l5 47 -16 -43 c-11 -33 -18 -41 -27 -32 -8 8 -8 13 0 18
16 10 25 54 11 49 -7 -2 -12 -11 -12 -20 0 -9 -4 -16 -9 -16 -5 0 -13 -5 -17
-13 -7 -10 -9 -9 -9 5 0 10 -5 15 -10 12 -6 -4 -10 -3 -9 2 1 4 -2 17 -6 27
-5 11 -4 31 2 47 7 17 7 31 2 35 -5 3 -9 -1 -9 -8 0 -7 -7 -21 -15 -32 -13
-17 -14 -12 -10 45 2 35 15 116 28 179 19 95 21 116 10 118 -16 4 -33 44 -32
75 0 21 1 21 8 2 5 -11 14 -20 22 -20 8 0 13 -9 12 -23 -2 -12 2 -22 8 -22 7
0 9 11 6 28 -4 18 1 34 12 47 10 11 24 43 31 70 7 28 24 70 37 93 18 31 23 52
19 70 -4 15 -7 33 -8 40 -1 6 -6 12 -11 12 -5 0 -7 13 -3 30 3 17 2 30 -2 30
-16 0 -12 63 4 81 10 11 15 22 12 24 -3 3 -18 -9 -33 -27z m-13 -125 c-3 -25
0 -33 11 -33 20 0 25 -26 14 -72 -11 -46 -22 -48 -31 -7 -3 18 -10 28 -16 24
-12 -8 -3 -66 11 -75 5 -3 3 -22 -3 -43 -6 -20 -14 -34 -18 -32 -3 2 -4 -10
-2 -27 4 -26 2 -30 -12 -25 -9 4 -16 1 -16 -5 0 -6 -9 -3 -20 7 -16 14 -17 20
-8 27 7 4 9 8 3 8 -5 0 -11 21 -11 48 -1 26 0 36 3 23 4 -19 7 -21 14 -10 6
10 9 4 9 -21 1 -29 2 -32 11 -17 6 9 14 15 19 12 4 -3 6 4 3 15 -3 11 -9 20
-14 20 -5 0 -6 15 -3 33 l5 32 -15 -25 c-15 -24 -15 -23 -9 25 6 55 22 85 16
33 -1 -18 0 -26 3 -18 4 8 13 19 20 23 8 4 14 15 14 23 0 8 -4 12 -10 9 -12
-8 -12 -7 1 54 8 39 13 48 23 39 6 -6 10 -26 8 -45z"/>
<path d="M1176 1695 c-13 -27 -14 -38 -5 -50 7 -10 4 -45 -16 -170 -3 -22 -14
-51 -24 -65 -10 -14 -21 -37 -24 -52 -11 -42 -29 -216 -32 -301 -1 -42 -5 -80
-8 -83 -3 -4 0 -13 8 -20 8 -8 11 -22 8 -30 -4 -11 0 -15 13 -12 11 2 22 8 27
13 6 9 30 -18 32 -35 0 -3 4 -11 8 -17 5 -7 5 -18 1 -25 -4 -6 -3 -8 4 -4 6 3
15 -2 21 -11 6 -10 11 -13 11 -6 0 6 -5 15 -10 18 -6 4 -8 11 -5 16 4 5 0 9
-7 9 -7 0 -2 7 10 16 12 8 22 21 22 28 0 7 8 21 19 30 10 9 21 29 24 44 3 15
13 36 22 47 16 20 16 20 6 -2 -16 -32 -14 -52 3 -30 7 9 18 17 23 17 6 0 13 9
16 21 3 12 10 18 16 15 5 -4 12 3 16 13 4 12 12 18 21 14 8 -3 14 1 14 11 0 9
8 16 20 16 12 0 20 7 20 16 0 9 7 14 18 12 11 -3 16 -12 15 -26 -2 -14 3 -22
13 -22 11 0 13 -6 9 -20 -5 -15 -2 -20 10 -20 13 0 16 -6 12 -21 -4 -15 0 -23
12 -26 13 -3 17 -11 13 -29 -3 -15 0 -24 8 -24 8 0 10 -8 7 -21 -3 -12 0 -22
9 -26 10 -4 11 -10 4 -23 -6 -12 -7 -21 0 -25 5 -3 7 -12 3 -20 -3 -9 0 -22 7
-30 8 -10 10 -29 6 -56 -6 -38 -5 -41 14 -36 16 4 20 0 20 -19 0 -17 4 -22 15
-18 8 4 15 17 15 30 0 17 6 24 20 24 16 0 20 7 20 35 0 26 9 43 35 71 19 19
35 40 35 45 0 5 4 9 9 9 14 0 56 42 64 63 3 9 13 17 22 17 8 0 15 7 15 15 0 8
10 19 21 26 16 8 20 8 17 -1 -5 -17 119 -140 136 -134 8 3 16 -4 19 -18 5 -17
9 -20 18 -11 8 8 8 16 0 31 -9 16 -7 21 10 25 20 5 20 7 4 31 -16 24 -16 26
-1 26 10 0 16 9 16 25 0 16 6 25 15 25 12 0 13 4 6 18 -8 14 -5 23 10 35 10 9
26 17 34 17 19 0 19 17 0 50 -20 35 -18 50 5 50 18 0 19 3 10 20 -9 17 -8 20
11 20 16 0 20 5 16 20 -4 15 0 20 15 20 14 0 18 5 14 15 -4 10 1 15 14 15 11
0 20 -7 20 -15 0 -9 11 -20 25 -25 14 -5 25 -16 25 -24 0 -8 9 -18 20 -21 11
-3 20 -10 20 -14 0 -4 16 -24 35 -45 19 -21 35 -45 35 -52 0 -8 5 -14 10 -14
31 0 -30 93 -110 170 -20 19 -39 43 -43 53 -4 9 -13 17 -22 17 -8 0 -15 6 -15
14 0 8 -7 17 -16 20 -24 9 -26 8 -19 -14 5 -14 2 -20 -10 -20 -12 0 -15 -6
-10 -20 5 -16 2 -20 -15 -20 -17 0 -20 -4 -15 -20 5 -15 2 -20 -13 -20 -15 0
-19 -5 -15 -20 4 -15 0 -20 -16 -20 -19 0 -20 -3 -11 -20 9 -17 8 -20 -8 -20
-30 0 -32 -10 -11 -52 20 -39 20 -40 0 -45 -12 -3 -17 -11 -14 -19 3 -8 -1
-14 -11 -14 -19 0 -20 -5 -6 -30 7 -13 6 -19 -6 -24 -10 -4 -14 -12 -10 -23 4
-9 1 -20 -6 -25 -20 -12 -28 -10 -28 8 0 10 -6 14 -15 10 -9 -3 -15 0 -15 9 0
8 -6 15 -13 15 -16 0 -57 41 -57 57 0 6 -6 16 -14 23 -8 6 -17 21 -19 33 -3
13 -5 7 -6 -14 0 -23 -7 -39 -16 -43 -8 -3 -15 -10 -15 -16 0 -5 -17 -27 -37
-49 -21 -21 -52 -54 -69 -72 -83 -90 -133 -123 -121 -80 3 12 -1 22 -10 25
-10 4 -11 10 -4 25 8 15 7 20 -5 25 -12 4 -13 10 -4 26 8 15 8 20 -1 20 -7 0
-9 9 -5 25 5 19 2 25 -10 25 -12 0 -15 6 -11 21 3 12 0 22 -9 26 -8 3 -14 14
-14 24 0 11 -7 19 -16 19 -12 0 -15 6 -11 21 3 12 0 22 -9 26 -9 3 -12 13 -8
29 3 13 2 24 -4 24 -5 0 -12 9 -15 20 -6 23 -27 27 -27 5 0 -8 -6 -15 -14 -15
-8 0 -18 -9 -21 -21 -4 -12 -12 -18 -21 -15 -8 3 -14 -1 -14 -9 0 -8 -7 -15
-15 -15 -8 0 -15 -7 -15 -15 0 -8 -6 -15 -14 -15 -8 0 -16 -6 -19 -14 -3 -8
-15 -16 -27 -18 -22 -3 -41 -29 -61 -83 -6 -16 -13 -25 -16 -18 -2 7 1 21 7
32 9 17 8 21 -5 21 -8 0 -15 -9 -15 -20 0 -11 -7 -20 -15 -20 -8 0 -15 -7 -15
-15 0 -21 -39 -19 -47 3 -4 9 -11 20 -17 24 -6 4 -6 11 2 21 7 7 9 17 5 21
-11 10 -12 156 -2 156 5 0 9 -7 9 -15 0 -8 7 -15 15 -15 12 0 13 -4 5 -19 -7
-13 -7 -20 0 -23 6 -2 12 -20 14 -41 4 -47 11 -55 25 -28 7 12 17 18 26 15 10
-4 15 0 15 15 0 14 6 21 20 21 11 0 20 7 20 15 0 8 7 15 15 15 8 0 15 7 15 15
0 8 7 15 15 15 9 0 19 8 22 18 6 14 8 13 14 -8 7 -24 7 -25 8 -2 1 13 5 20 11
17 6 -3 7 1 4 10 -4 9 -13 14 -20 11 -21 -8 -17 -1 20 38 35 38 52 46 42 21
-3 -8 -1 -15 4 -15 6 0 10 9 10 19 0 27 -28 34 -42 11 -7 -11 -20 -20 -29 -20
-18 0 -29 -20 -29 -51 0 -12 -7 -19 -20 -19 -12 0 -20 -7 -20 -16 0 -11 -5
-14 -16 -10 -11 4 -18 -1 -21 -14 -3 -11 -10 -17 -15 -14 -5 3 -12 -4 -15 -15
-8 -31 -26 -20 -36 22 -5 20 -13 37 -18 37 -14 0 -50 40 -45 49 3 4 8 30 11
57 9 78 20 119 30 117 6 -2 10 -9 10 -15 0 -7 4 -16 9 -19 5 -4 5 -12 1 -19
-4 -7 -9 -38 -11 -69 -3 -50 0 -58 22 -78 27 -23 54 -21 54 3 0 8 9 14 19 14
13 0 23 11 30 33 6 18 24 40 41 50 17 10 30 24 30 32 0 9 6 12 15 9 8 -4 17 1
21 10 3 9 12 16 18 16 7 0 12 10 12 21 -1 18 7 26 43 46 2 1 -5 10 -15 20 -17
17 -17 17 -11 1 4 -12 2 -18 -8 -18 -8 0 -15 -6 -15 -14 0 -8 -9 -18 -20 -21
-11 -3 -20 -13 -20 -21 0 -8 -6 -14 -14 -14 -8 0 -16 -7 -20 -15 -3 -8 -12
-15 -21 -15 -8 0 -15 -5 -15 -10 0 -12 -2 -14 -51 -72 -32 -39 -65 -49 -75
-24 -3 8 2 36 11 62 11 33 13 50 6 52 -6 2 -8 8 -5 13 9 16 12 59 4 59 -12 0
-19 54 -9 65 11 11 12 28 1 21 -5 -3 -6 8 -4 25 5 37 22 48 29 20 3 -12 9 -21
14 -21 5 0 9 -9 9 -20 0 -11 4 -20 9 -20 12 0 5 -104 -9 -130 -17 -31 -2 -39
20 -10 l18 24 4 -25 c2 -20 7 -13 27 34 16 39 28 56 37 53 8 -3 14 1 14 9 0 8
7 15 15 15 9 0 18 7 21 15 4 8 12 15 20 15 8 0 14 5 14 10 0 6 9 10 20 10 14
0 20 7 20 21 0 12 8 23 19 26 11 3 21 13 24 24 3 11 14 19 27 19 18 0 20 3 11
13 -12 15 3 37 26 37 13 0 17 12 7 23 -7 7 -74 -32 -74 -43 0 -4 -13 -10 -30
-13 -32 -7 -40 -24 -15 -33 12 -5 13 -10 4 -20 -14 -17 -45 -18 -55 -3 -8 14
-49 4 -92 -23 -30 -19 -32 -22 -18 -37 20 -22 20 -45 2 -60 -12 -10 -16 -4
-22 31 -5 24 -8 49 -7 56 0 6 -7 12 -17 12 -32 0 -64 59 -70 125 -4 47 -7 56
-14 40z m237 -180 c-3 -8 -9 -15 -15 -15 -5 0 -20 -12 -34 -27 -28 -31 -38
-26 -29 15 4 22 14 32 38 39 37 11 48 8 40 -12z m-217 -612 c-3 -3 -13 -3 -22
1 -15 6 -15 8 2 27 l19 21 3 -22 c2 -12 1 -24 -2 -27z"/>
<path d="M1597 1684 c-12 -13 -8 -22 14 -27 15 -4 19 -1 17 10 -3 18 -21 27
-31 17z"/>
<path d="M2039 1617 c-9 -7 -19 -23 -23 -35 -5 -15 -13 -21 -22 -18 -16 6 -64
-35 -64 -56 0 -7 13 3 30 22 26 31 29 33 30 14 0 -12 -7 -25 -16 -28 -8 -3
-12 -11 -9 -16 4 -6 1 -17 -5 -25 -6 -8 -9 -23 -6 -33 5 -13 1 -22 -10 -26
-13 -5 -14 -9 -4 -21 10 -12 10 -18 0 -30 -11 -13 -10 -19 7 -34 19 -18 20
-18 47 4 16 13 24 25 18 29 -6 3 -13 2 -17 -4 -3 -5 -11 -10 -17 -10 -7 0 -7
5 1 14 6 7 9 20 5 29 -3 8 0 18 6 22 8 5 8 11 -1 21 -10 12 -8 17 6 28 10 7
15 18 11 24 -3 6 -1 14 5 17 5 4 8 13 6 20 -3 6 2 19 11 27 10 8 24 25 32 36
17 26 30 28 30 7 0 -8 7 -15 15 -15 12 0 13 4 6 19 -17 30 -46 38 -72 18z"/>
<path d="M1574 1595 c-22 -24 -39 -69 -23 -59 5 3 9 -1 9 -8 -1 -16 -28 -53
-40 -54 -6 -1 -16 -2 -23 -3 -8 0 -14 -13 -14 -31 0 -16 4 -27 9 -24 4 3 8 15
8 27 0 16 3 18 12 9 10 -10 16 -8 30 10 l18 23 0 -22 c0 -13 6 -23 13 -23 9 0
13 -12 12 -35 0 -22 4 -35 12 -35 7 0 13 -11 13 -25 0 -14 5 -25 10 -25 6 0
10 -11 10 -25 0 -16 6 -25 16 -25 11 0 14 -5 10 -16 -4 -9 -1 -23 5 -30 6 -8
9 -21 5 -29 -3 -8 0 -15 6 -15 6 0 8 -11 5 -30 -4 -20 -2 -32 7 -37 8 -4 16
-19 18 -33 l4 -25 11 25 c5 14 13 42 16 63 5 31 3 37 -13 37 -18 0 -36 42 -25
60 4 6 1 10 -4 10 -6 0 -11 11 -11 25 0 14 -5 25 -11 25 -6 0 -8 9 -4 20 5 14
2 20 -9 20 -10 0 -16 9 -16 25 0 14 -4 25 -9 25 -5 0 -12 17 -16 37 -4 21 -11
41 -16 44 -5 3 -11 20 -12 37 -1 18 -8 32 -14 32 -18 0 -16 11 8 36 12 12 20
27 18 33 -2 5 -14 -1 -25 -14z"/>
<path d="M2096 1555 c-3 -8 -3 -22 0 -30 4 -8 1 -15 -5 -15 -6 0 -8 -7 -5 -15
4 -8 1 -15 -5 -15 -6 0 -11 -8 -11 -17 0 -9 -12 -29 -27 -45 -32 -34 -25 -45
15 -24 21 11 29 21 25 34 -3 12 4 22 19 30 14 8 24 23 24 38 3 35 11 40 33 20
21 -19 81 -39 81 -26 0 5 -10 10 -22 12 -17 2 -22 9 -20 26 2 12 -2 22 -8 22
-7 0 -10 -7 -6 -15 7 -19 6 -19 -32 1 -18 8 -32 20 -32 25 0 15 -17 10 -24 -6z"/>
<path d="M2170 1465 c0 -8 -6 -15 -12 -15 -9 0 -8 -4 2 -10 12 -8 11 -10 -7
-10 -16 0 -23 -6 -23 -20 0 -11 -7 -20 -15 -20 -8 0 -15 -7 -15 -15 0 -9 -9
-15 -21 -15 -14 0 -19 -5 -16 -14 3 -8 -2 -16 -14 -19 -11 -3 -19 -14 -19 -25
0 -11 -7 -22 -15 -26 -9 -3 -12 -12 -9 -21 4 -9 -1 -21 -11 -29 -11 -8 -16
-20 -12 -29 3 -8 0 -18 -8 -21 -8 -3 -11 -13 -8 -26 4 -13 0 -26 -8 -31 -19
-12 -29 -11 -29 2 0 10 -37 49 -46 49 -4 0 3 -44 11 -62 4 -10 13 -18 19 -18
7 0 18 -16 25 -36 8 -23 18 -34 27 -30 7 3 16 1 19 -4 11 -18 27 -10 22 10 -3
12 1 24 11 29 15 9 15 12 -1 45 -21 45 -21 56 -1 56 11 0 14 5 10 16 -4 9 -1
23 5 30 6 8 8 21 5 30 -4 11 1 18 14 21 11 3 20 14 20 24 0 11 7 19 16 19 11
0 14 6 9 20 -5 16 -2 20 14 20 14 0 21 6 21 19 0 13 10 21 34 25 28 5 33 10
29 26 -4 15 0 20 16 20 14 0 21 -6 21 -19 0 -11 9 -23 21 -26 29 -10 32 -2 9
25 -11 13 -20 26 -20 30 0 5 -11 11 -25 14 -14 4 -25 11 -25 16 0 6 -4 10 -10
10 -5 0 -10 -7 -10 -15z"/>
<path d="M2275 1449 c4 -19 12 -39 17 -46 5 -7 7 -17 3 -23 -3 -5 -1 -10 5
-10 7 0 9 -8 5 -19 -3 -12 0 -21 10 -25 8 -3 15 -11 15 -18 0 -7 15 -29 33
-48 17 -20 37 -47 44 -60 8 -18 12 -20 12 -8 1 9 -10 30 -24 46 -31 37 -78
129 -71 140 3 5 -4 16 -15 25 -10 9 -19 28 -19 41 0 14 -5 28 -11 32 -8 4 -9
-4 -4 -27z"/>
<path d="M1900 1411 c0 -11 -3 -26 -6 -35 -3 -9 -2 -16 3 -16 5 0 14 16 20 35
9 29 9 35 -3 35 -8 0 -14 -9 -14 -19z"/>
<path d="M1513 1370 c-3 -11 -12 -20 -19 -20 -8 0 -14 -6 -14 -13 0 -8 -12
-20 -27 -27 -16 -8 -29 -15 -31 -16 -1 -1 0 -9 4 -18 8 -20 34 -21 34 -1 0 8
7 15 15 15 9 0 18 7 21 15 9 23 26 18 19 -5 -4 -12 -2 -20 5 -20 7 0 9 -8 5
-20 -5 -14 -2 -20 9 -20 9 0 16 -8 16 -19 0 -11 5 -21 12 -23 10 -4 10 -13 1
-42 -11 -35 -10 -39 8 -43 10 -3 19 -12 19 -19 0 -8 7 -14 15 -14 9 0 15 -9
15 -25 0 -14 4 -25 10 -25 5 0 7 -7 4 -15 -4 -8 -1 -22 6 -30 6 -8 9 -23 5
-35 -4 -12 -2 -20 5 -20 7 0 9 -8 5 -19 -3 -11 -1 -22 5 -26 7 -4 14 2 17 13
3 13 11 18 19 15 10 -4 14 3 14 21 0 16 6 26 15 26 8 0 15 9 15 20 0 11 7 20
15 20 8 0 15 9 15 20 0 13 7 20 20 20 11 0 20 7 20 15 0 8 6 15 14 15 10 0 15
15 18 50 1 28 2 55 0 60 -6 18 -22 10 -22 -11 0 -16 -4 -19 -20 -14 -18 6 -20
2 -20 -39 0 -34 -4 -46 -15 -46 -8 0 -15 -9 -15 -20 0 -14 -6 -20 -17 -18 -10
2 -18 -4 -19 -12 -3 -32 -17 -60 -30 -60 -10 0 -13 7 -8 25 4 16 2 25 -6 25
-8 0 -10 8 -7 21 3 13 0 22 -10 26 -8 3 -13 13 -10 24 4 13 0 19 -13 19 -15 0
-17 6 -13 40 4 26 2 40 -6 40 -6 0 -11 7 -11 15 0 19 -21 58 -38 68 -7 5 -10
13 -6 18 3 6 -2 16 -12 23 -10 7 -13 16 -7 19 12 8 4 67 -9 67 -5 0 -12 -9
-15 -20z"/>
<path d="M1820 1365 c-1 -5 -2 -13 -1 -17 0 -5 -6 -8 -14 -8 -8 0 -15 -9 -15
-20 0 -11 -6 -20 -13 -20 -14 0 -37 -54 -37 -88 0 -12 5 -22 10 -22 6 0 10 9
10 20 0 11 4 20 9 20 5 0 8 8 7 18 0 10 6 17 16 16 18 -2 45 73 35 98 -3 7 -6
9 -7 3z"/>
<path d="M1890 1248 c0 -31 4 -48 8 -40 5 7 16 10 26 6 15 -6 17 -3 12 13 -4
12 -1 25 9 33 19 16 20 40 1 40 -8 0 -17 -11 -20 -25 -4 -14 -11 -25 -17 -25
-6 0 -6 6 0 19 6 10 7 21 4 25 -16 16 -23 2 -23 -46z"/>
<path d="M2296 1146 c5 -21 3 -25 -10 -20 -17 7 -22 -11 -6 -21 6 -3 10 -13
10 -22 0 -11 -6 -14 -21 -10 -15 4 -19 2 -15 -9 3 -8 -1 -14 -10 -14 -11 0
-13 -7 -8 -27 6 -23 5 -25 -15 -20 -18 4 -21 2 -16 -14 5 -15 1 -19 -14 -19
-24 0 -25 -4 -11 -30 8 -15 6 -20 -9 -25 -12 -3 -18 -12 -15 -20 4 -9 -3 -16
-21 -21 -19 -5 -25 -11 -22 -25 3 -11 -4 -24 -18 -33 -21 -14 -24 -14 -29 0
-6 15 -9 15 -30 1 -22 -15 -24 -14 -51 29 -16 25 -37 50 -47 55 -10 5 -18 18
-18 27 0 10 -7 27 -16 38 -8 10 -13 14 -10 8 9 -18 -17 -64 -36 -64 -10 0 -18
-7 -18 -15 0 -8 -7 -15 -16 -15 -9 0 -18 -9 -21 -20 -3 -11 -12 -20 -19 -20
-8 0 -14 -9 -14 -20 0 -13 -7 -20 -20 -20 -17 0 -20 -7 -20 -45 0 -33 -4 -45
-15 -45 -9 0 -15 -9 -15 -25 0 -16 -6 -25 -16 -25 -11 0 -14 -6 -9 -20 5 -14
2 -20 -9 -20 -11 0 -16 -9 -16 -30 0 -25 -4 -30 -25 -30 -20 0 -25 5 -25 25 0
18 -4 23 -15 19 -11 -5 -15 1 -15 21 0 20 -4 26 -15 21 -11 -4 -15 1 -15 18 0
13 -7 26 -15 30 -15 5 -15 18 2 79 3 11 -1 17 -12 17 -13 0 -16 6 -13 25 3 14
1 25 -5 25 -5 0 -7 9 -4 21 3 12 0 22 -9 26 -9 3 -12 13 -9 24 4 12 1 21 -9
25 -11 4 -14 14 -10 30 5 18 2 24 -10 24 -10 0 -15 7 -13 21 3 29 -19 36 -28
10 -3 -12 -12 -21 -20 -21 -7 0 -15 -9 -18 -20 -3 -13 -10 -18 -21 -14 -11 4
-16 1 -16 -10 0 -9 -8 -16 -20 -16 -11 0 -20 -7 -20 -15 0 -9 -6 -12 -15 -9
-9 4 -15 0 -15 -10 0 -9 -8 -16 -19 -16 -15 0 -20 -10 -25 -53 -6 -43 -10 -53
-26 -53 -11 0 -20 4 -20 8 0 4 -4 8 -10 8 -5 0 -10 -9 -10 -20 0 -11 -5 -20
-11 -20 -5 0 -8 4 -4 9 3 5 1 12 -4 15 -5 4 -12 -7 -16 -24 -8 -38 -19 -44
-40 -24 -18 18 -17 18 -34 -14 -9 -17 -9 -22 0 -20 7 2 15 -6 17 -17 6 -31 22
-43 22 -17 0 16 5 22 17 20 10 -2 19 5 22 19 7 26 46 58 84 67 15 3 27 13 27
22 0 10 6 14 15 10 11 -4 16 5 21 35 6 33 10 39 25 34 15 -5 19 -1 19 15 0 17
4 20 20 15 15 -5 20 -2 20 13 0 15 5 19 20 15 15 -4 20 0 20 16 0 14 5 19 15
15 8 -4 15 -17 15 -30 0 -14 6 -24 14 -24 9 0 12 -8 8 -25 -3 -18 0 -25 11
-25 10 0 13 -6 10 -21 -3 -12 -1 -24 5 -28 8 -5 9 -17 1 -46 -9 -32 -8 -41 5
-51 9 -6 16 -20 16 -32 0 -11 7 -23 16 -26 10 -4 14 -12 10 -22 -4 -11 1 -18
14 -21 11 -3 20 -14 20 -24 0 -11 7 -19 15 -19 10 0 15 -10 15 -30 0 -26 4
-30 28 -30 57 0 74 11 70 41 -3 20 0 29 9 29 7 0 13 11 13 24 0 13 7 26 15 30
9 3 12 12 8 22 -4 10 0 22 8 28 9 6 18 19 22 29 3 9 13 17 22 17 11 0 15 11
15 40 0 29 4 40 15 40 8 0 15 9 15 20 0 13 7 20 20 20 13 0 20 7 20 20 0 11 7
20 15 20 7 0 19 8 24 18 11 18 12 17 15 -40 1 -24 21 -22 20 2 0 16 2 17 13 8
8 -6 12 -17 9 -24 -3 -7 4 -22 15 -35 10 -12 19 -28 19 -36 0 -16 1 -16 34 -3
20 7 26 6 26 -5 0 -8 5 -25 11 -39 l12 -25 36 25 c19 13 40 24 46 24 32 1 36
17 16 55 -21 40 -20 55 5 55 8 0 12 5 9 10 -4 6 8 10 29 10 38 0 44 8 24 28
-9 9 -7 12 11 12 15 0 21 5 18 13 -19 46 -19 46 3 40 19 -5 20 -3 14 21 -5 23
-3 27 25 32 26 5 29 9 21 25 -16 29 10 36 34 8 12 -13 31 -32 42 -42 21 -17
22 -17 27 3 4 15 -2 24 -23 35 -16 8 -31 24 -35 35 -3 11 -15 20 -25 20 -12 0
-20 8 -22 22 -2 13 -11 24 -21 26 -15 3 -17 -1 -11 -22z m-165 -359 c-6 -6
-21 -12 -33 -14 -23 -3 -23 -3 2 16 25 20 51 18 31 -2z"/>
<path d="M845 1005 c-10 -19 -15 -38 -12 -41 3 -4 13 11 22 31 20 49 12 57
-10 10z"/>
<path d="M947 1013 c-4 -3 -6 -40 -5 -82 l1 -76 7 80 c6 87 6 88 -3 78z"/>
<path d="M2398 989 c-10 -5 -18 -19 -18 -29 0 -11 -4 -20 -10 -20 -5 0 -10 -7
-10 -15 0 -9 -12 -18 -30 -21 -16 -4 -30 -13 -30 -20 0 -8 -10 -14 -25 -14
-29 0 -31 -11 -9 -45 16 -24 16 -25 -10 -25 -18 0 -26 -5 -26 -18 0 -10 -15
-29 -32 -42 -18 -13 -41 -34 -51 -46 -16 -21 -20 -21 -44 -9 -20 11 -30 11
-41 3 -14 -12 -32 4 -32 30 0 6 -6 12 -14 12 -8 0 -16 8 -19 18 -4 16 -5 15
-12 -2 -6 -14 -3 -24 13 -37 12 -9 22 -25 22 -34 0 -9 9 -19 20 -22 36 -9 22
-23 -37 -38 -7 -2 -14 1 -14 6 -7 47 -22 82 -43 102 -13 12 -21 28 -18 36 3 8
0 11 -7 7 -6 -4 -11 -1 -11 8 0 8 -4 17 -9 20 -14 9 -91 -70 -91 -93 0 -12 -4
-21 -10 -21 -5 0 -10 -11 -10 -25 0 -14 -4 -25 -10 -25 -5 0 -10 -11 -10 -25
0 -13 -6 -28 -12 -32 -18 -11 -18 -53 0 -53 20 0 41 30 42 57 0 12 5 25 10 28
6 3 10 17 10 31 0 13 5 24 11 24 6 0 8 8 4 19 -3 10 1 24 10 31 8 7 15 21 15
31 0 11 7 19 16 19 8 0 13 -4 10 -8 -3 -5 4 -15 15 -22 10 -8 19 -19 19 -26 0
-6 9 -22 20 -35 11 -13 23 -28 28 -34 4 -5 6 -18 4 -27 -2 -10 2 -18 10 -18
10 0 9 -3 -2 -10 -38 -25 8 -7 52 20 26 16 51 30 54 30 15 0 99 67 156 123 56
55 135 161 167 225 13 25 13 25 -11 11z"/>
<path d="M1016 939 c-16 -48 -23 -90 -16 -94 5 -3 6 -13 3 -23 -3 -9 -3 -14 1
-11 12 11 25 69 16 69 -5 0 -4 14 2 31 6 16 8 33 4 36 -3 3 -8 0 -10 -8z"/>
<path d="M1099 853 c-15 -4 -29 -43 -29 -81 0 -23 29 17 30 41 0 9 4 17 8 17
5 0 9 7 9 15 0 8 -1 14 -1 14 -1 -1 -8 -3 -17 -6z"/>
<path d="M1360 815 c0 -8 -6 -15 -14 -15 -7 0 -16 -9 -19 -20 -3 -11 -12 -20
-21 -20 -9 0 -16 -7 -16 -16 0 -11 -6 -14 -20 -9 -16 5 -20 2 -20 -15 0 -15
-5 -20 -14 -17 -9 4 -17 -2 -21 -13 -3 -10 -12 -17 -19 -14 -8 3 -16 -4 -19
-15 -3 -14 -10 -19 -21 -15 -12 4 -16 0 -16 -16 0 -16 -4 -20 -15 -16 -10 4
-15 -1 -15 -15 0 -11 -4 -18 -9 -15 -5 3 -11 -3 -14 -14 -3 -11 -2 -21 1 -21
35 -7 52 -4 52 7 0 8 5 14 10 14 6 0 10 9 10 20 0 13 5 18 15 14 10 -4 15 0
15 10 0 11 7 16 18 14 11 -2 18 4 20 18 2 16 8 20 23 17 14 -4 19 0 19 16 0
14 5 19 15 15 10 -4 15 0 15 11 0 12 5 15 16 11 11 -4 18 1 21 14 7 28 27 20
31 -13 2 -15 8 -27 13 -27 5 0 9 -9 9 -20 0 -10 7 -23 16 -28 11 -6 15 -17 12
-30 -4 -15 0 -23 13 -27 13 -4 19 -16 19 -36 0 -29 -2 -30 -37 -27 -29 2 -39
8 -42 23 -2 11 -9 23 -16 27 -7 4 -10 18 -8 31 3 16 -1 26 -11 30 -12 5 -16 0
-16 -19 0 -19 -4 -25 -15 -20 -10 4 -15 -1 -15 -15 0 -15 -5 -19 -15 -15 -9 3
-15 0 -15 -9 0 -8 -9 -15 -20 -15 -11 0 -20 -4 -20 -10 0 -5 8 -10 18 -10 9 0
35 -3 57 -6 33 -6 38 -4 28 7 -17 18 -16 29 2 29 8 0 15 -9 15 -19 0 -18 9
-19 118 -19 64 1 102 3 85 5 -19 2 -33 10 -33 17 0 8 -9 16 -20 19 -14 3 -20
14 -20 31 0 17 -5 26 -16 26 -12 0 -15 6 -10 24 4 16 1 26 -9 30 -8 3 -15 15
-15 26 0 11 -7 23 -16 27 -11 4 -13 13 -9 34 4 18 2 29 -4 29 -7 0 -9 10 -5
25 5 19 2 25 -10 25 -9 0 -16 -7 -16 -15z"/>
<path d="M1869 653 c-1 -5 0 -18 0 -30 1 -11 -2 -24 -7 -27 -11 -7 -3 -56 9
-56 5 0 9 9 9 20 0 23 15 27 23 6 3 -8 15 -12 31 -9 20 4 22 8 13 18 -7 7 -14
11 -16 9 -7 -7 -30 24 -37 50 -6 24 -22 36 -25 19z"/>
</g>
</svg>
